<svg xmlns="http://www.w3.org/2000/svg" width="246.001" height="434" viewBox="0 0 246.001 434">
  <path id="Subtraction_3" data-name="Subtraction 3" d="M-940,434h-174a35.78,35.78,0,0,1-14.012-2.829,35.889,35.889,0,0,1-11.443-7.716,35.876,35.876,0,0,1-7.715-11.443A35.771,35.771,0,0,1-1150,398V36a35.777,35.777,0,0,1,2.83-14.013,35.873,35.873,0,0,1,7.715-11.443,35.859,35.859,0,0,1,11.443-7.715A35.775,35.775,0,0,1-1114,0h174a35.77,35.77,0,0,1,14.013,2.83,35.837,35.837,0,0,1,11.443,7.715,35.866,35.866,0,0,1,7.716,11.443A35.77,35.77,0,0,1-904,36V398a35.763,35.763,0,0,1-2.829,14.013,35.867,35.867,0,0,1-7.716,11.443,35.875,35.875,0,0,1-11.443,7.716A35.775,35.775,0,0,1-940,434Zm-86.575-71.2a20.59,20.59,0,0,0-20.783,20.344,20.59,20.59,0,0,0,20.783,20.344,20.59,20.59,0,0,0,20.782-20.344A20.59,20.59,0,0,0-1026.575,362.8ZM-1126.248,53.4V333.977h198.5V53.4Zm56.048-35.6a6.007,6.007,0,0,0-6,6v4.954a6.007,6.007,0,0,0,6,6h87.248a6.007,6.007,0,0,0,6-6V23.8a6.007,6.007,0,0,0-6-6Z" transform="translate(1150 0)"/>
</svg>
