<?xml version="1.0" ?><!DOCTYPE svg  PUBLIC '-//W3C//DTD SVG 1.1//EN'  'http://www.w3.org/Graphics/SVG/1.1/DTD/svg11.dtd'><svg enable-background="new 0 0 24 24" height="24px" id="Layer_1" version="1.1" viewBox="0 0 24 24" width="24px" xml:space="preserve" xmlns="http://www.w3.org/2000/svg" xmlns:xlink="http://www.w3.org/1999/xlink"><g><path d="M23,0H1C0.4,0,0,0.4,0,1v22c0,0.6,0.4,1,1,1h22c0.6,0,1-0.4,1-1V1C24,0.4,23.6,0,23,0z M2,22V2h2v20H2z M5,8.1   C6.4,5.7,9,4,12,4c4.4,0,8,3.6,8,8s-3.6,8-8,8c-3,0-5.6-1.7-7-4.1V8.1z M22,22H5v-4.3c1.7,2,4.2,3.3,7,3.3c5,0,9-4,9-9s-4-9-9-9   C9.2,3,6.7,4.3,5,6.3V2h17V22z"/><path d="M12,15c1.7,0,3-1.3,3-3s-1.3-3-3-3s-3,1.3-3,3S10.3,15,12,15z M12,10c1.1,0,2,0.9,2,2s-0.9,2-2,2s-2-0.9-2-2S10.9,10,12,10   z"/></g></svg>