<?xml version="1.0" ?><!DOCTYPE svg  PUBLIC '-//W3C//DTD SVG 1.1//EN'  'http://www.w3.org/Graphics/SVG/1.1/DTD/svg11.dtd'><svg enable-background="new 0 0 64 64" height="64px" id="Layer_1" version="1.1" viewBox="0 0 64 64" width="64px" xml:space="preserve" xmlns="http://www.w3.org/2000/svg" xmlns:xlink="http://www.w3.org/1999/xlink"><g><g><circle cx="32" cy="43.419" fill="#241F20" r="7.045"/></g><g><path d="M47.045,0H16.937c-2.865,0-5.175,2.326-5.175,5.19V64h40.476V5.19C52.238,2.326,49.91,0,47.045,0z     M31.998,7.924c5.524,0,10.004,4.479,10.004,10.004S37.521,27.93,31.998,27.93s-10.003-4.478-10.003-10.002    S26.474,7.924,31.998,7.924z M31.998,56.526c-7.071,0-12.805-5.731-12.805-12.806c0-7.071,5.734-12.806,12.805-12.806    c7.075,0,12.805,5.735,12.805,12.806C44.803,50.795,39.072,56.526,31.998,56.526z" fill="#241F20"/></g><g><path d="M37.611,18.144c0,3.098-2.514,5.61-5.614,5.61c-3.096,0-5.608-2.513-5.608-5.61    c0-3.102,2.513-5.613,5.608-5.613C35.098,12.53,37.611,15.042,37.611,18.144z" fill="#241F20"/></g></g></svg>